<mxfile host="app.diagrams.net" modified="2022-12-05T04:10:26.129Z" agent="5.0 (Windows NT 10.0; Win64; x64) AppleWebKit/537.36 (KHTML, like Gecko) Chrome/107.0.0.0 Safari/537.36" etag="U_ZMCyXF3pAm6ocGKiRf" version="20.4.0" type="github">
  <diagram id="4smZeyvt5P-9_RaWFuqd" name="Page-1">
    <mxGraphModel dx="1449" dy="652" grid="1" gridSize="10" guides="1" tooltips="1" connect="1" arrows="1" fold="1" page="1" pageScale="1" pageWidth="850" pageHeight="1100" math="0" shadow="0">
      <root>
        <mxCell id="0" />
        <mxCell id="1" parent="0" />
        <mxCell id="fH4loxEB4iK8McvrBhj8-13" value="" style="group;fillColor=#d5e8d4;strokeColor=none;" vertex="1" connectable="0" parent="1">
          <mxGeometry x="250" y="263" width="70" height="70" as="geometry" />
        </mxCell>
        <mxCell id="fH4loxEB4iK8McvrBhj8-11" value="" style="sketch=0;pointerEvents=1;shadow=0;dashed=0;html=1;strokeColor=none;fillColor=#434445;aspect=fixed;labelPosition=center;verticalLabelPosition=bottom;verticalAlign=top;align=center;outlineConnect=0;shape=mxgraph.vvd.cpu;" vertex="1" parent="fH4loxEB4iK8McvrBhj8-13">
          <mxGeometry width="70" height="70" as="geometry" />
        </mxCell>
        <mxCell id="fH4loxEB4iK8McvrBhj8-12" value="CPU" style="text;html=1;strokeColor=none;fillColor=#d5e8d4;align=center;verticalAlign=middle;whiteSpace=wrap;rounded=0;" vertex="1" parent="fH4loxEB4iK8McvrBhj8-13">
          <mxGeometry x="20" y="20" width="30" height="30" as="geometry" />
        </mxCell>
        <mxCell id="fH4loxEB4iK8McvrBhj8-14" value="Memory" style="strokeWidth=2;html=1;shape=mxgraph.flowchart.document2;whiteSpace=wrap;size=0.1;direction=north;fillColor=#dae8fc;strokeColor=#6c8ebf;" vertex="1" parent="1">
          <mxGeometry x="360" y="273" width="110" height="50" as="geometry" />
        </mxCell>
        <mxCell id="fH4loxEB4iK8McvrBhj8-15" value="..." style="text;html=1;strokeColor=none;fillColor=none;align=center;verticalAlign=middle;whiteSpace=wrap;rounded=0;fontStyle=1;spacingTop=0;" vertex="1" parent="1">
          <mxGeometry x="434" y="280" width="60" height="30" as="geometry" />
        </mxCell>
        <mxCell id="fH4loxEB4iK8McvrBhj8-16" value="" style="endArrow=classic;html=1;rounded=0;entryX=0.429;entryY=-0.014;entryDx=0;entryDy=0;entryPerimeter=0;" edge="1" parent="1">
          <mxGeometry width="50" height="50" relative="1" as="geometry">
            <mxPoint x="400" y="270" as="sourcePoint" />
            <mxPoint x="280.03" y="260.02" as="targetPoint" />
            <Array as="points">
              <mxPoint x="400" y="240" />
              <mxPoint x="280" y="240" />
            </Array>
          </mxGeometry>
        </mxCell>
        <mxCell id="fH4loxEB4iK8McvrBhj8-17" value="" style="endArrow=classic;html=1;rounded=0;entryX=0;entryY=0.5;entryDx=0;entryDy=0;entryPerimeter=0;" edge="1" parent="1">
          <mxGeometry width="50" height="50" relative="1" as="geometry">
            <mxPoint x="280" y="337" as="sourcePoint" />
            <mxPoint x="405" y="328" as="targetPoint" />
            <Array as="points">
              <mxPoint x="280" y="357" />
              <mxPoint x="405" y="357" />
            </Array>
          </mxGeometry>
        </mxCell>
        <mxCell id="fH4loxEB4iK8McvrBhj8-19" value="" style="group;fillColor=#d5e8d4;strokeColor=none;" vertex="1" connectable="0" parent="1">
          <mxGeometry x="226" y="519.5" width="70" height="70" as="geometry" />
        </mxCell>
        <mxCell id="fH4loxEB4iK8McvrBhj8-20" value="" style="sketch=0;pointerEvents=1;shadow=0;dashed=0;html=1;strokeColor=none;fillColor=#434445;aspect=fixed;labelPosition=center;verticalLabelPosition=bottom;verticalAlign=top;align=center;outlineConnect=0;shape=mxgraph.vvd.cpu;" vertex="1" parent="fH4loxEB4iK8McvrBhj8-19">
          <mxGeometry width="70" height="70" as="geometry" />
        </mxCell>
        <mxCell id="fH4loxEB4iK8McvrBhj8-21" value="CPU" style="text;html=1;strokeColor=none;fillColor=#d5e8d4;align=center;verticalAlign=middle;whiteSpace=wrap;rounded=0;" vertex="1" parent="fH4loxEB4iK8McvrBhj8-19">
          <mxGeometry x="20" y="20" width="30" height="30" as="geometry" />
        </mxCell>
        <mxCell id="fH4loxEB4iK8McvrBhj8-24" value="" style="endArrow=classic;html=1;rounded=0;entryX=0.429;entryY=-0.014;entryDx=0;entryDy=0;entryPerimeter=0;" edge="1" parent="1">
          <mxGeometry width="50" height="50" relative="1" as="geometry">
            <mxPoint x="376" y="526.5" as="sourcePoint" />
            <mxPoint x="256.03" y="516.52" as="targetPoint" />
            <Array as="points">
              <mxPoint x="376" y="496.5" />
              <mxPoint x="256" y="496.5" />
            </Array>
          </mxGeometry>
        </mxCell>
        <mxCell id="fH4loxEB4iK8McvrBhj8-25" value="" style="endArrow=classic;html=1;rounded=0;entryX=0;entryY=0.5;entryDx=0;entryDy=0;entryPerimeter=0;" edge="1" parent="1">
          <mxGeometry width="50" height="50" relative="1" as="geometry">
            <mxPoint x="256" y="593.5" as="sourcePoint" />
            <mxPoint x="381" y="584.5" as="targetPoint" />
            <Array as="points">
              <mxPoint x="256" y="613.5" />
              <mxPoint x="381" y="613.5" />
            </Array>
          </mxGeometry>
        </mxCell>
        <mxCell id="fH4loxEB4iK8McvrBhj8-26" value="Memory" style="rounded=1;whiteSpace=wrap;html=1;strokeColor=#6c8ebf;fillColor=#dae8fc;fontStyle=1" vertex="1" parent="1">
          <mxGeometry x="340" y="525" width="120" height="60" as="geometry" />
        </mxCell>
        <mxCell id="fH4loxEB4iK8McvrBhj8-28" value="" style="endArrow=classic;startArrow=classic;html=1;rounded=0;exitX=1;exitY=0.5;exitDx=0;exitDy=0;entryX=0;entryY=0.5;entryDx=0;entryDy=0;" edge="1" parent="1">
          <mxGeometry width="50" height="50" relative="1" as="geometry">
            <mxPoint x="462" y="555" as="sourcePoint" />
            <mxPoint x="526" y="554.5" as="targetPoint" />
          </mxGeometry>
        </mxCell>
        <mxCell id="fH4loxEB4iK8McvrBhj8-29" value="block" style="text;html=1;strokeColor=none;fillColor=none;align=center;verticalAlign=middle;whiteSpace=wrap;rounded=0;" vertex="1" parent="1">
          <mxGeometry x="460" y="529.5" width="60" height="30" as="geometry" />
        </mxCell>
        <mxCell id="fH4loxEB4iK8McvrBhj8-30" value="" style="verticalLabelPosition=bottom;html=1;verticalAlign=top;align=center;strokeColor=none;fillColor=#00BEF2;shape=mxgraph.azure.vhd_data_disk;pointerEvents=1;" vertex="1" parent="1">
          <mxGeometry x="535" y="525" width="50" height="65" as="geometry" />
        </mxCell>
        <mxCell id="fH4loxEB4iK8McvrBhj8-31" value="disk" style="text;html=1;strokeColor=none;fillColor=none;align=center;verticalAlign=middle;whiteSpace=wrap;rounded=0;" vertex="1" parent="1">
          <mxGeometry x="530" y="585" width="60" height="30" as="geometry" />
        </mxCell>
      </root>
    </mxGraphModel>
  </diagram>
</mxfile>
